<?xml version="1.0" encoding="UTF-8"?>
<!DOCTYPE svg PUBLIC "-//W3C//DTD SVG 1.1//EN" "http://www.w3.org/Graphics/SVG/1.1/DTD/svg11.dtd">
<!-- Creator: CorelDRAW -->
<svg xmlns="http://www.w3.org/2000/svg" xml:space="preserve" width="6.35mm" height="6.35mm" version="1.1" style="shape-rendering:geometricPrecision; text-rendering:geometricPrecision; image-rendering:optimizeQuality; fill-rule:evenodd; clip-rule:evenodd"
viewBox="0 0 635 635"
 xmlns:xlink="http://www.w3.org/1999/xlink"
 xmlns:xodm="http://www.corel.com/coreldraw/odm/2003">
 <defs>
  <style type="text/css">
   <![CDATA[
    .fil0 {fill:white;fill-rule:nonzero}
   ]]>
  </style>
 </defs>
 <g id="Camada_x0020_1">
  <metadata id="CorelCorpID_0Corel-Layer"/>
  <path class="fil0" d="M502.71 0l-370.42 0c-73.05,0 -132.29,59.24 -132.29,132.29l0 370.42c0,73.05 59.24,132.29 132.29,132.29l370.42 0c73.08,0 132.29,-59.24 132.29,-132.29l0 -370.42c0,-73.05 -59.21,-132.29 -132.29,-132.29zm-118.16 518.32c-10.72,2.06 -14.13,-4.52 -14.13,-10.16l0 -58.08c0,-19.76 -6.93,-32.62 -14.55,-39.18 47.15,-5.24 96.68,-23.15 96.68,-104.43 0,-23.12 -8.26,-42.02 -21.78,-56.81 2.17,-5.34 9.42,-26.88 -2.09,-56.01 0,0 -17.75,-5.69 -58.16,21.7 -16.93,-4.76 -35.03,-7.06 -53.02,-7.17 -17.99,0.08 -36.09,2.41 -53,7.12 -40.43,-27.38 -58.21,-21.7 -58.21,-21.7 -11.48,29.16 -4.23,50.67 -2.04,56.04 -13.55,14.82 -21.8,33.68 -21.8,56.81 0,81.07 49.4,99.25 96.44,104.62 -6.06,5.29 -11.54,14.61 -13.44,28.31 -12.09,5.4 -42.7,14.74 -61.6,-17.62 0,0 -11.19,-20.32 -32.46,-21.83 0,0 -20.64,-0.26 -1.46,12.89 0,0 13.89,6.51 23.52,30.96 0,0 12.25,37.78 71.12,24.98l0 39.4c0,5.58 -3.41,12.14 -13.97,10.19 -84.14,-27.97 -144.78,-107.32 -144.78,-200.82 0,-116.92 94.77,-211.67 211.67,-211.67 116.9,0 211.67,94.75 211.67,211.67 0,93.48 -60.56,172.8 -144.62,200.82l0.01 -0.03z"/>
 </g>
</svg>
