<?xml version="1.0" encoding="UTF-8"?>
<!DOCTYPE svg PUBLIC "-//W3C//DTD SVG 1.1//EN" "http://www.w3.org/Graphics/SVG/1.1/DTD/svg11.dtd">
<!-- Creator: CorelDRAW -->
<svg xmlns="http://www.w3.org/2000/svg" xml:space="preserve" width="6.35mm" height="6.35mm" version="1.1" style="shape-rendering:geometricPrecision; text-rendering:geometricPrecision; image-rendering:optimizeQuality; fill-rule:evenodd; clip-rule:evenodd"
viewBox="0 0 635 635"
 xmlns:xlink="http://www.w3.org/1999/xlink"
 xmlns:xodm="http://www.corel.com/coreldraw/odm/2003">
 <defs>
  <style type="text/css">
   <![CDATA[
    .fil0 {fill:white;fill-rule:nonzero}
   ]]>
  </style>
 </defs>
 <g id="Camada_x0020_1">
  <metadata id="CorelCorpID_0Corel-Layer"/>
  <path class="fil0" d="M502.71 0l-370.42 0c-73.05,0 -132.29,59.24 -132.29,132.29l0 370.42c0,73.05 59.24,132.29 132.29,132.29l370.42 0c73.08,0 132.29,-59.24 132.29,-132.29l0 -370.42c0,-73.05 -59.21,-132.29 -132.29,-132.29zm-291.04 502.71l-79.38 0 0 -291.04 79.38 0 0 291.04zm-39.69 -324.59c-25.56,0 -46.3,-20.9 -46.3,-46.67 0,-25.77 20.74,-46.67 46.3,-46.67 25.56,0 46.3,20.9 46.3,46.67 0,25.77 -20.72,46.67 -46.3,46.67zm357.19 324.59l-79.38 0 0 -148.27c0,-89.11 -105.83,-82.36 -105.83,0l0 148.27 -79.38 0 0 -291.04 79.38 0 0 46.7c36.94,-68.42 185.21,-73.47 185.21,65.51l0 178.83z"/>
 </g>
</svg>
